<svg xmlns="http://www.w3.org/2000/svg" class="ionicon" viewBox="0 0 512 512">
  <ellipse cx="256" cy="128" rx="192" ry="80" fill="none" stroke="#FFDB6E " stroke-linecap="round" stroke-miterlimit="10" stroke-width="32"/>
  <path d="M448 214c0 44.18-86 80-192 80S64 258.18 64 214" fill="none" stroke="#FFDB6E" stroke-linecap="round" stroke-miterlimit="10" stroke-width="32"/>
  <path d="M448 300c0 44.18-86 80-192 80S64 344.18 64 300" fill="none" stroke="#FFDB6E " stroke-linecap="round" stroke-miterlimit="10" stroke-width="32"/>
  <path d="M64 127.24v257.52C64 428.52 150 464 256 464s192-35.48 192-79.24V127.24" fill="none" stroke="#FFDB6E " stroke-linecap="round" stroke-miterlimit="10" stroke-width="32"/>
  <defs>
<linearGradient id="paint0_linear" x1="3.26667" y1="1" x2="37.8" y2="39.1334" gradientUnits="userSpaceOnUse">
<stop offset="0.259336" stop-color="#FFDB6E"/>
<stop offset="1" stop-color="#FFBC5E"/>
</linearGradient>
<linearGradient id="paint1_linear" x1="29.602" y1="29.21" x2="36.1781" y2="36.4484" gradientUnits="userSpaceOnUse">
<stop offset="0.259336" stop-color="#FFDB6E"/>
<stop offset="1" stop-color="#FFBC5E"/>
</linearGradient>
<linearGradient id="paint2_linear" x1="29.602" y1="29.21" x2="36.1781" y2="36.4484" gradientUnits="userSpaceOnUse">
<stop offset="0.259336" stop-color="#FFDB6E"/>
<stop offset="1" stop-color="#FFBC5E"/>
</linearGradient>
<linearGradient id="paint3_linear" x1="3.26667" y1="1" x2="37.8" y2="39.1334" gradientUnits="userSpaceOnUse">
<stop offset="0.259336" stop-color="#FFDB6E"/>
<stop offset="1" stop-color="#FFBC5E"/>
</linearGradient>
<linearGradient id="paint4_linear" x1="3.26667" y1="1" x2="37.8" y2="39.1334" gradientUnits="userSpaceOnUse">
<stop offset="0.259336" stop-color="#FFDB6E"/>
<stop offset="1" stop-color="#FFBC5E"/>
</linearGradient>
</defs>
</svg>
